<svg xmlns="http://www.w3.org/2000/svg" viewBox="0 0 640 128" role="img" aria-label="AgentDock"><defs>
  <linearGradient id="badge" x1="0" y1="0" x2="0" y2="1"><stop offset="0" stop-color="#4a4a4a"/><stop offset="0.16" stop-color="#343434"/><stop offset="0.58" stop-color="#1d1d1d"/><stop offset="1" stop-color="#090909"/></linearGradient>
  <linearGradient id="rim" x1="0" y1="0" x2="0" y2="1"><stop offset="0" stop-color="#e6e6e6" stop-opacity="0.72"/><stop offset="0.28" stop-color="#9a9a9a" stop-opacity="0.34"/><stop offset="0.72" stop-color="#585858" stop-opacity="0.18"/><stop offset="1" stop-color="#d7d7d7" stop-opacity="0.34"/></linearGradient>
  <linearGradient id="mark" x1="0" y1="0" x2="0" y2="1"><stop offset="0" stop-color="#ffffff"/><stop offset="0.7" stop-color="#f4f4f4"/><stop offset="1" stop-color="#dedede"/></linearGradient>
  <filter id="badgeShadow" x="-20%" y="-20%" width="140%" height="150%"><feDropShadow dx="0" dy="22" stdDeviation="20" flood-color="#000000" flood-opacity="0.72"/></filter>
  <filter id="markShadow" x="-20%" y="-20%" width="140%" height="150%"><feDropShadow dx="0" dy="10" stdDeviation="8" flood-color="#000000" flood-opacity="0.55"/></filter>
  <clipPath id="hexClip"><path d="M512 76 C553 76 814 226 844 278 C874 330 874 694 844 746 C814 798 553 948 512 948 C471 948 210 798 180 746 C150 694 150 330 180 278 C210 226 471 76 512 76 Z"/></clipPath>
</defs><g transform="translate(8 4) scale(0.1171875)"><g filter="url(#badgeShadow)"><path d="M512 76 C553 76 814 226 844 278 C874 330 874 694 844 746 C814 798 553 948 512 948 C471 948 210 798 180 746 C150 694 150 330 180 278 C210 226 471 76 512 76 Z" fill="url(#badge)"/><path d="M512 76 C553 76 814 226 844 278 C874 330 874 694 844 746 C814 798 553 948 512 948 C471 948 210 798 180 746 C150 694 150 330 180 278 C210 226 471 76 512 76 Z" fill="none" stroke="url(#rim)" stroke-width="10"/><ellipse cx="512" cy="142" rx="255" ry="96" fill="#fff" opacity="0.075" clip-path="url(#hexClip)"/></g><g fill="url(#mark)" filter="url(#markShadow)"><path d="M512 270 L694 610 C704 630 691 652 669 652 H603 L512 474 L421 652 H355 C333 652 320 630 330 610 L512 270 Z"/><path d="M360 706 H664 C675 706 685 712 691 722 L736 794 C747 812 734 834 713 834 H311 C290 834 277 812 288 794 L333 722 C339 712 349 706 360 706 Z"/></g></g><text x="144" y="82" fill="#111111" font-family="-apple-system,BlinkMacSystemFont,Segoe UI,Arial,sans-serif" font-size="48" font-weight="700" letter-spacing="-1.6">AgentDock</text></svg>